<svg width="16" height="16" viewBox="0 0 16 16" fill="none" xmlns="http://www.w3.org/2000/svg">
<path d="M6.72013 5.26474C7.4379 3.97713 7.79678 3.33333 8.33334 3.33333C8.86989 3.33333 9.22878 3.97713 9.94655 5.26474L10.1322 5.59786C10.3362 5.96376 10.4382 6.14671 10.5972 6.26742C10.7562 6.38813 10.9543 6.43294 11.3503 6.52256L11.7109 6.60414C13.1048 6.91951 13.8017 7.07719 13.9675 7.61038C14.1333 8.14356 13.6582 8.69913 12.708 9.81029L12.4621 10.0978C12.1921 10.4135 12.0571 10.5714 11.9964 10.7667C11.9356 10.962 11.956 11.1727 11.9968 11.5939L12.034 11.9775C12.1777 13.46 12.2495 14.2013 11.8154 14.5308C11.3813 14.8603 10.7288 14.5599 9.42379 13.959L9.08616 13.8035C8.71531 13.6328 8.52989 13.5474 8.33334 13.5474C8.13679 13.5474 7.95136 13.6328 7.58051 13.8035L7.24289 13.959C5.93785 14.5599 5.28534 14.8603 4.85126 14.5308C4.41717 14.2013 4.489 13.46 4.63266 11.9775L4.66983 11.5939C4.71065 11.1727 4.73106 10.962 4.67033 10.7667C4.60959 10.5714 4.47458 10.4135 4.20456 10.0978L3.95873 9.81029C3.00851 8.69914 2.53341 8.14356 2.69921 7.61038C2.86501 7.07719 3.56192 6.91951 4.95574 6.60414L5.31634 6.52256C5.71242 6.43294 5.91046 6.38813 6.06947 6.26742C6.22849 6.14671 6.33047 5.96376 6.53444 5.59786L6.72013 5.26474Z" fill="white"/>
<path d="M3.24488 1.66692C3.26487 1.5964 3.39005 1.59598 3.41052 1.66636C3.50399 1.98777 3.67731 2.46285 3.93939 2.72317C4.20147 2.98348 4.67771 3.15359 4.99974 3.24488C5.07026 3.26487 5.07069 3.39005 5.0003 3.41052C4.67889 3.50399 4.20382 3.67731 3.9435 3.93939C3.68318 4.20147 3.51308 4.67771 3.42178 4.99974C3.40179 5.07026 3.27661 5.07069 3.25614 5.0003C3.16267 4.67889 2.98936 4.20382 2.72727 3.9435C2.46519 3.68318 1.98895 3.51308 1.66692 3.42178C1.5964 3.40179 1.59598 3.27661 1.66636 3.25614C1.98777 3.16267 2.46285 2.98936 2.72317 2.72727C2.98348 2.46519 3.15359 1.98895 3.24488 1.66692Z" fill="white"/>
<path fill-rule="evenodd" clip-rule="evenodd" d="M12.6667 2.16667C12.9428 2.16667 13.1667 2.39053 13.1667 2.66667V2.83334H13.3333C13.6095 2.83334 13.8333 3.0572 13.8333 3.33334C13.8333 3.60948 13.6095 3.83334 13.3333 3.83334H13.1667V4.00001C13.1667 4.27615 12.9428 4.50001 12.6667 4.50001C12.3905 4.50001 12.1667 4.27615 12.1667 4.00001V3.83334H12C11.7239 3.83334 11.5 3.60948 11.5 3.33334C11.5 3.0572 11.7239 2.83334 12 2.83334H12.1667V2.66667C12.1667 2.39053 12.3905 2.16667 12.6667 2.16667Z" fill="white"/>
</svg>
